<?xml version="1.0" encoding="UTF-8"?>
<!DOCTYPE svg PUBLIC "-//W3C//DTD SVG 1.1//EN" "http://www.w3.org/Graphics/SVG/1.1/DTD/svg11.dtd">
<!-- Creator: CorelDRAW -->
<svg xmlns="http://www.w3.org/2000/svg" xml:space="preserve" width="0.66048in" height="1.04444in" version="1.1" style="shape-rendering:geometricPrecision; text-rendering:geometricPrecision; image-rendering:optimizeQuality; fill-rule:evenodd; clip-rule:evenodd"
viewBox="0 0 13.7 21.66"
 xmlns:xlink="http://www.w3.org/1999/xlink"
 xmlns:xodm="http://www.corel.com/coreldraw/odm/2003">
 <defs>
  <style type="text/css">
   <![CDATA[
    .fil0 {fill:white}
    .fil1 {fill:white;fill-rule:nonzero}
   ]]>
  </style>
 </defs>
 <g id="Layer_x0020_1">
  <metadata id="CorelCorpID_0Corel-Layer"/>
  <g id="_2729136026016">
   <rect class="fil0" transform="matrix(2.30407 -2.30407 2.30407 2.30407 4.74885 10.8291)" width="0.91" height="0.91"/>
   <path class="fil0" d="M7.84 2.6l0 0.69 -1.98 0 0 -0.69 -1.05 -0.56c0,-1.12 0.92,-2.04 2.04,-2.04 1.12,0 2.04,0.92 2.04,2.04l-1.05 0.56 0 0z"/>
   <polygon class="fil0" points="5.86,18.37 7.84,18.37 7.84,20.67 6.85,21.66 5.86,20.67 "/>
   <path class="fil1" d="M6.85 3.98c1.89,0 3.6,0.77 4.84,2.01 1.24,1.24 2.01,2.95 2.01,4.84 0,1.89 -0.77,3.6 -2.01,4.84 -1.24,1.24 -2.95,2 -4.84,2 -1.89,-0 -3.61,-0.77 -4.84,-2 -1.24,-1.24 -2.01,-2.95 -2.01,-4.84 0,-1.89 0.77,-3.6 2.01,-4.84 1.24,-1.24 2.95,-2.01 4.84,-2.01zm3.65 3.2c-0.93,-0.93 -2.22,-1.51 -3.65,-1.51 -1.42,0 -2.71,0.58 -3.65,1.51 -0.93,0.93 -1.51,2.22 -1.51,3.65 0,1.42 0.58,2.71 1.51,3.65 0.93,0.93 2.22,1.51 3.65,1.51 1.42,0 2.71,-0.58 3.65,-1.51 0.93,-0.93 1.51,-2.22 1.51,-3.65 0,-1.42 -0.58,-2.71 -1.51,-3.65z"/>
  </g>
 </g>
</svg>
